<?xml version="1.0" encoding="UTF-8"?>
<svg version="1.1" xmlns="http://www.w3.org/2000/svg" width="562" height="583">
<path d="M0 0 C185.46 0 370.92 0 562 0 C562 192.39 562 384.78 562 583 C376.54 583 191.08 583 0 583 C0 390.61 0 198.22 0 0 Z " fill="#FEFEFE" transform="translate(0,0)"/>
<path d="M0 0 C8.83769511 6.25013798 14.99204913 14.23008168 17 25 C17.87782616 33.351211 17.17641348 40.1671342 12 47 C1.86037696 56.97098066 -13.21412553 56.32946177 -26.45046997 56.30914307 C-46.65183589 56.33574195 -63.57957323 58.86923231 -81.48046875 68.6796875 C-84 70 -84 70 -86 70 C-86 70.66 -86 71.32 -86 72 C-84.1128125 72.2784375 -84.1128125 72.2784375 -82.1875 72.5625 C-70.58782183 74.88243563 -57.84290922 79.37064333 -48 86 C-46.948125 86.680625 -45.89625 87.36125 -44.8125 88.0625 C-36.22079266 95.77361684 -32.65358797 110.85123386 -31.7578125 122.01953125 C-31.75152868 124.01464489 -31.85785333 126.00994667 -32 128 C-31.24332031 127.83886719 -30.48664063 127.67773438 -29.70703125 127.51171875 C-24.68875711 126.81899598 -19.74737126 126.81574143 -14.6875 126.8125 C-13.69298828 126.80025391 -12.69847656 126.78800781 -11.67382812 126.77539062 C-5.49837039 126.76322623 0.0479321 127.36252499 6 129 C6.97066406 129.24878906 7.94132812 129.49757812 8.94140625 129.75390625 C34.69864257 137.6998793 57.09736475 158.58876129 70.125 181.875 C74.45895174 191.08592816 74.47782375 200.28313862 71.4375 209.9375 C68.19076318 217.62713985 62.52655566 222.6566192 56.296875 227.96875 C48.53132798 234.83624056 41.5355527 242.29374831 35.08984375 250.40625 C33.07141488 252.91136546 30.97189957 255.30358819 28.8125 257.6875 C27.53762348 259.12141544 26.26665472 260.55881666 25 262 C24.37222656 262.71285156 23.74445313 263.42570312 23.09765625 264.16015625 C21.53341479 266.05781879 20.1474249 267.82517372 19 270 C19.28489423 272.67341328 19.28489423 272.67341328 21 275 C24.30859138 281.48992924 25.19601316 287.18405367 23.4140625 294.359375 C20.99144855 300.80486164 16.51705473 305.01715386 11 309 C3.46679617 311.51106794 -3.31231475 310.22532567 -10.36328125 307.0234375 C-15.07264857 305.1955053 -20.02115773 304.68541817 -25 304 C-25.12846313 305.0058313 -25.12846313 305.0058313 -25.25952148 306.03198242 C-25.6503665 309.08405714 -26.04390665 312.13577854 -26.4375 315.1875 C-26.57220703 316.24259766 -26.70691406 317.29769531 -26.84570312 318.38476562 C-27.04389648 319.91713867 -27.04389648 319.91713867 -27.24609375 321.48046875 C-27.36654053 322.41785889 -27.4869873 323.35524902 -27.61108398 324.32104492 C-27.86553244 326.07375236 -28.16930218 327.82017499 -28.52734375 329.5546875 C-28.98956767 331.9460278 -29.2006559 334.2137738 -29.31640625 336.64453125 C-29.35830078 337.48564453 -29.40019531 338.32675781 -29.44335938 339.19335938 C-29.50233398 340.48983398 -29.50233398 340.48983398 -29.5625 341.8125 C-29.60568359 342.69615234 -29.64886719 343.57980469 -29.69335938 344.49023438 C-29.79891536 346.65999623 -29.89991071 348.8299791 -30 351 C-29.08863281 350.97679687 -28.17726563 350.95359375 -27.23828125 350.9296875 C10.35776979 350.40596142 51.2165768 358.43545464 79.375 384.9375 C88.48464299 394.50073517 93.68920146 406.50173289 93.61328125 419.72924805 C93.0757551 431.11002036 88.01985535 442.15887236 81 451 C80.47792969 451.70640625 79.95585937 452.4128125 79.41796875 453.140625 C74.52850755 459.32401855 68.57130371 463.30999189 60.6875 464.5 C56.59421138 463.73845793 54.22364116 462.55878813 51.61035156 459.22973633 C47.563026 453.31539697 44.84687096 447.28403053 42.25 440.625 C35.29999383 423.45889336 26.9447043 407.9342729 16 393 C15.49114258 392.30181152 14.98228516 391.60362305 14.45800781 390.88427734 C11.0362707 386.20564051 7.55005643 381.58192524 4 377 C3.3296875 376.12859375 2.659375 375.2571875 1.96875 374.359375 C1.11796875 373.31523438 1.11796875 373.31523438 0.25 372.25 C-0.19859375 371.69828125 -0.6471875 371.1465625 -1.109375 370.578125 C-7.19983593 365.49435183 -13.24031821 364.38111597 -21 364.25 C-21.87011719 364.22035156 -22.74023438 364.19070313 -23.63671875 364.16015625 C-25.75733216 364.09024592 -27.87866563 364.04276884 -30 364 C-29.93016907 364.89705154 -29.86033813 365.79410309 -29.78839111 366.71833801 C-29.10038314 376.15377261 -28.82215561 385.5514486 -28.796875 395.01171875 C-28.79404762 395.74632639 -28.79122025 396.48093403 -28.78830719 397.23780251 C-28.77345459 401.13453124 -28.76414062 405.03122437 -28.75976562 408.92797852 C-28.75540875 412.07783771 -28.74160546 415.22741872 -28.71875 418.37719727 C-28.21725243 488.96653916 -28.21725243 488.96653916 -45.21875 507.30078125 C-48.88350333 510.79676304 -52.33764796 512.15726942 -57.3125 512.5625 C-63.06475647 512.32080855 -66.79502123 509.75005417 -71 506 C-76.18768135 499.51704764 -80.33547071 492.25128275 -84.5625 485.125 C-97.38282931 463.81012409 -112.36024696 444.02380873 -127.78222656 424.54248047 C-130.54320198 421.04531875 -133.27030093 417.52159129 -136 414 C-147.66233716 425.1360584 -155.93393176 439.05200514 -161.20776367 454.22021484 C-164.32271819 463.15134908 -168.07584898 469.54261737 -175.9375 475.0625 C-180.84668145 476.56531065 -185.29309755 477.10938625 -190.14453125 475.12109375 C-201.28703276 468.66568657 -205.8168338 457.73509255 -209.265625 445.79296875 C-213.56646795 429.46143874 -214.54339305 412.91832305 -206.25 397.8125 C-203.13912436 393.92390545 -199.79438731 390.23590606 -196 387 C-195.34 387 -194.68 387 -194 387 C-193.33231471 385.33374114 -192.66586376 383.6669876 -192 382 C-191.69320312 381.24203125 -191.38640625 380.4840625 -191.0703125 379.703125 C-188.58217963 373.2463174 -186.90920202 366.79039985 -185.57080078 360.01464844 C-184.43290501 354.66292398 -182.75157048 350.0801633 -178.20703125 346.64453125 C-171.9778567 344.82539178 -162.82575107 344.82993505 -156.75 347.3125 C-152.98706969 349.62157087 -151.40318385 350.79044844 -150 355 C-149.74232692 358.24238627 -149.55753192 361.47862321 -149.39453125 364.7265625 C-149.49318309 368.15564977 -149.49318309 368.15564977 -148 371 C-141.00707312 371.79442788 -135.08996718 369.21430029 -128.5625 366.9375 C-117.62138777 363.25552179 -106.66521904 360.34284027 -95.375 357.9375 C-94.66715363 357.78602509 -93.95930725 357.63455017 -93.23001099 357.47848511 C-81.5754097 355 -81.5754097 355 -79 355 C-81.25763525 339.4599907 -81.25763525 339.4599907 -84 324 C-84.85335938 324.3609375 -85.70671875 324.721875 -86.5859375 325.09375 C-102.01588664 331.03485127 -121.73960561 332.30517664 -137.09765625 325.546875 C-149.96756275 318.68754394 -160.92699293 310.40760184 -166 296.19921875 C-168.89516199 286.13574702 -169.23591142 276.15357634 -169.4296875 265.75195312 C-169.65233686 258.79879929 -170.89366969 252.62626543 -173 246 C-177.12355614 254.70319443 -180.86234101 263.47047415 -184.375 272.4375 C-191.61434416 290.75177788 -199.28207568 308.88324078 -207 327 C-207.29046204 327.68253845 -207.58092407 328.3650769 -207.88018799 329.06829834 C-264.12205884 461.1762219 -264.12205884 461.1762219 -307 505 C-307.6703125 505.72058594 -308.340625 506.44117188 -309.03125 507.18359375 C-317.83163553 516.4501014 -333.63865621 531.76650669 -346.625 533.3125 C-347.40875 533.209375 -348.1925 533.10625 -349 533 C-351 530 -351 530 -350.796875 527.109375 C-348.64547654 518.71470256 -341.86602926 511.41366922 -336.8125 504.5 C-327.6351656 491.93951263 -319.10029581 478.85803348 -312 465 C-312.64324219 464.64550781 -313.28648437 464.29101562 -313.94921875 463.92578125 C-331.10122057 453.82053624 -342.61665445 438.7831777 -349 420 C-349.42732422 418.9171875 -349.42732422 418.9171875 -349.86328125 417.8125 C-351.74946519 412.86005806 -352.70808113 407.7641439 -353.625 402.5625 C-353.8098999 401.55376831 -353.8098999 401.55376831 -353.99853516 400.5246582 C-356.42902647 385.75177568 -356.15013462 370.49793074 -356.14526367 355.56958008 C-356.14826534 353.69966059 -356.15167013 351.82974171 -356.15544128 349.95982361 C-356.16417742 344.93937795 -356.16661479 339.91894939 -356.16725707 334.89849687 C-356.16797286 331.75144354 -356.17011696 328.60439442 -356.17275429 325.45734215 C-356.18196926 314.44983015 -356.18609352 303.44233018 -356.18530273 292.43481445 C-356.18470114 282.21686161 -356.19527899 271.99896141 -356.2110464 261.78102189 C-356.22415968 252.96520836 -356.22948513 244.14941198 -356.22884732 235.33358878 C-356.2285937 230.08683801 -356.23137025 224.84013426 -356.24202538 219.59339333 C-356.25177198 214.66103671 -356.251741 209.72877152 -356.24450874 204.79641151 C-356.24347142 202.99824386 -356.24577441 201.20007031 -356.2518692 199.40191269 C-356.33417194 173.41604618 -352.26467312 147.78123442 -334 128 C-333.22398437 127.1440625 -332.44796875 126.288125 -331.6484375 125.40625 C-321.13102145 114.34866455 -308.52387847 105.62588417 -296 97 C-291.75531973 94.04717894 -288.72564737 90.93828874 -287 86 C-284.2520362 69.86843474 -296.90609068 53.15653677 -304.42578125 39.62109375 C-304.79791748 38.94409424 -305.17005371 38.26709473 -305.5534668 37.56958008 C-306.24737645 36.31029769 -306.9501382 35.05583614 -307.66333008 33.80737305 C-309.54427094 30.38761406 -310.39542572 27.91032106 -310 24 C-305.38702543 24.53619446 -302.63969044 26.41814515 -298.875 29.0625 C-288.03924045 36.33231751 -275.85599455 40.57896163 -263.68896484 45.09912109 C-250.74480812 49.92532753 -240.96085668 55.23003081 -231 65 C-230.16855469 65.79470703 -230.16855469 65.79470703 -229.3203125 66.60546875 C-218.88672833 77.57483157 -212.54795539 94.19999761 -212.56640625 109.08984375 C-213.28066479 113.88374117 -215.13340195 116.33622277 -218.9375 119.25 C-229.3635144 125.20772251 -241.29517664 120.98082586 -252.10351562 118.1328125 C-262.986233 115.42020639 -273.19862307 115.09432601 -284.125 117.6875 C-285.3174231 117.95759888 -285.3174231 117.95759888 -286.53393555 118.2331543 C-289.02660967 118.8063151 -291.51295385 119.40295309 -294 120 C-294.81903809 120.18723633 -295.63807617 120.37447266 -296.48193359 120.56738281 C-315.4832752 124.69140986 -315.4832752 124.69140986 -330.875 135.8125 C-335.19587984 143.6649968 -334.21015024 154.49371578 -332.14453125 162.9375 C-328.78624895 173.75735833 -323.47114863 183.87058765 -317.91796875 193.7109375 C-308.69231146 210.14229102 -302.87363266 226.53900304 -306.71484375 245.53515625 C-309.45249842 254.20267423 -314.17820996 261.97573286 -318.60961914 269.8659668 C-322.60665442 277.04692262 -325.72446606 284.07605946 -328 292 C-328.17523193 292.57919189 -328.35046387 293.15838379 -328.53100586 293.75512695 C-332.13310998 310.99684866 -329.25650366 331.58396651 -326.75 348.8125 C-326.64757996 349.53422394 -326.54515991 350.25594788 -326.43963623 350.99954224 C-325.09181004 360.30624619 -323.0453046 369.10003043 -320 378 C-318.0169296 377.4152961 -318.0169296 377.4152961 -316 376 C-314.65014906 373.32511532 -314.65014906 373.32511532 -313.6875 370.00390625 C-313.37828362 369.05059166 -313.37828362 369.05059166 -313.06282043 368.07801819 C-312.60640166 366.66576811 -312.15682718 365.25129319 -311.71304321 363.83502197 C-310.72218717 360.67708977 -309.69549854 357.5311289 -308.67158508 354.38378906 C-308.09446823 352.60861407 -307.51908719 350.83287404 -306.94523621 349.05664062 C-303.31599455 337.8343982 -299.56159601 326.65405517 -295.78741646 315.4798975 C-294.70116143 312.26354927 -293.61784512 309.04629155 -292.54272461 305.82620239 C-288.37757471 293.36161848 -284.14700966 280.95276554 -279.19921875 268.7734375 C-278.84970657 267.90957428 -278.5001944 267.04571106 -278.14009094 266.15567017 C-275.22064565 259.1395203 -271.99122539 251.81073441 -267 246 C-264.375 245.6875 -264.375 245.6875 -262 246 C-261 247 -261 247 -260.70703125 249.88671875 C-260.78932388 255.1898719 -262.85275935 259.90215893 -264.6875 264.8125 C-276.26267657 297.01392732 -281.21765093 329.69243111 -281.13037109 363.87255859 C-281.12496144 366.39296353 -281.13037996 368.91319383 -281.13671875 371.43359375 C-281.13605858 373.06770872 -281.13477869 374.70182358 -281.1328125 376.3359375 C-281.13584885 377.44248184 -281.13584885 377.44248184 -281.13894653 378.57138062 C-281.32834836 387.54147779 -281.32834836 387.54147779 -279 396 C-261.24899307 355.11099021 -243.76927245 314.07873354 -229 272 C-228.74196594 271.26630188 -228.48393188 270.53260376 -228.21807861 269.77667236 C-221.58418635 250.89529165 -215.13065238 232.00797684 -209.76074219 212.72167969 C-207.26389864 203.78881324 -204.6270818 194.89522821 -202 186 C-201.80428406 185.3344812 -201.60856812 184.6689624 -201.40692139 183.98327637 C-191.7406224 151.12030961 -182.04981534 118.59623557 -161 91 C-159.79154743 89.37508867 -158.58319284 87.75010446 -157.375 86.125 C-156.59125 85.09375 -155.8075 84.0625 -155 83 C-157.76718175 80.17450599 -160.58327841 77.44629248 -163.5234375 74.80078125 C-181.47485372 58.60844664 -181.47485372 58.60844664 -183.25 49.25 C-183.35953299 45.79971081 -182.92191122 44.86204316 -181.125 41.6875 C-174.5385614 35.24347089 -165.74417488 34.24746497 -157.03125 32.83203125 C-124.21906242 27.49280891 -91.27469197 18.79182285 -61.07763672 4.703125 C-43.60640386 -3.36757574 -17.86810259 -10.21034434 0 0 Z " fill="#45D9E6" transform="translate(407,16)"/>
<path d="M0 0 C4.20238916 3.17513847 5.76185573 5.95976668 7 11 C7.3173962 15.1272855 7.33320187 19.23699172 7.3125 23.375 C7.30686035 24.54095703 7.3012207 25.70691406 7.29541016 26.90820312 C6.99382436 48.4432206 0.47018433 68.31402238 -10 87 C-10.37060547 87.66676758 -10.74121094 88.33353516 -11.12304688 89.02050781 C-12.23898856 90.9920048 -13.39088488 92.93615701 -14.5625 94.875 C-14.90192627 95.46442383 -15.24135254 96.05384766 -15.59106445 96.66113281 C-17.62364475 99.87998263 -18.92183862 100.97074358 -22.52734375 102.3203125 C-23.67332031 102.54460937 -24.81929688 102.76890625 -26 103 C-26.6703125 103.20109375 -27.340625 103.4021875 -28.03125 103.609375 C-30.86337341 104.17130425 -33.61531772 104.21030254 -36.5 104.25 C-37.6240625 104.27578125 -38.748125 104.3015625 -39.90625 104.328125 C-43.25342807 103.97312127 -44.5728226 103.2606064 -47 101 C-46.58106081 96.1331745 -44.19736894 93.50510335 -40.9375 90.125 C-40.44161377 89.5983374 -39.94572754 89.0716748 -39.43481445 88.52905273 C-34.59540175 83.45067597 -29.46022331 78.86976972 -23.875 74.625 C-18.40816235 69.63353954 -14.00932676 63.43043423 -13.5625 55.875 C-13.68623099 48.93481618 -17.42364594 44.57635406 -22.16796875 39.83203125 C-31.23306415 31.94998256 -41.33555638 28.06529611 -53.37109375 28.59375 C-77.84049633 31.33305879 -116.23633097 43.90981162 -133.34765625 62.55859375 C-135.24779366 64.97407889 -135.24779366 64.97407889 -135.4375 68.3125 C-133.1196371 74.25832222 -128.20253411 76.58679447 -123 80 C-118.28728611 83.26822372 -113.64117148 86.63131617 -109 90 C-108.20464844 90.56847656 -107.40929687 91.13695312 -106.58984375 91.72265625 C-103.46762168 94.12683135 -102.06601536 95.81185622 -100.75 99.5625 C-101 103 -101 103 -102.6875 105.5625 C-109.74597885 111.47688475 -124.49311925 119 -134 119 C-134.02578125 117.70191406 -134.0515625 116.40382813 -134.078125 115.06640625 C-134.65167463 94.63012791 -137.90572223 74.77919117 -143 55 C-143.33383362 53.66679184 -143.66745708 52.33353069 -144 51 C-119.02575493 25.52769306 -77.47690703 17.34747112 -43.5625 11.9375 C-25.50481202 9.05367038 -25.50481202 9.05367038 -9.14453125 1.21484375 C-5.88353977 -0.63245743 -3.63162416 -0.78329148 0 0 Z " fill="#FCFEFE" transform="translate(409,171)"/>
<path d="M0 0 C2.29182528 1.61843904 4.09345655 3.06401159 6.0625 5 C6.5790918 5.4954834 7.09568359 5.9909668 7.62792969 6.50146484 C18.14194849 16.83969721 18.14194849 16.83969721 18.6875 24.4375 C17.86762578 34.72157443 10.51739624 42.60623054 4 50 C3.32928467 50.76328613 3.32928467 50.76328613 2.64501953 51.54199219 C-2.29780961 57.13889174 -7.31079689 62.55599252 -13.046875 67.359375 C-15.21444268 69.18013185 -17.28773984 71.08789454 -19.375 73 C-25.63131437 78.56477012 -32.33152663 83.56936718 -40 87 C-39.39163335 81.65766427 -38.55566437 76.44071705 -37.3984375 71.1875 C-37.24128769 70.46420502 -37.08413788 69.74091003 -36.92222595 68.99569702 C-36.41218639 66.66249717 -35.89484444 64.33103399 -35.375 62 C-35.19770355 61.20297668 -35.0204071 60.40595337 -34.83773804 59.58477783 C-32.57164942 49.44680558 -30.18584035 39.36135342 -27.3125 29.375 C-26.92167236 27.99441406 -26.92167236 27.99441406 -26.52294922 26.5859375 C-23.18537624 15.42054089 -18.61961078 7.29568863 -9.5 0 C-5.9289084 -1.42843664 -3.72692494 -0.87600334 0 0 Z " fill="#FCFEFE" transform="translate(296,107)"/>
<path d="M0 0 C0.05074705 6.74435205 0.0857534 13.48865477 0.10986328 20.2331543 C0.11991528 22.52711833 0.1335589 24.82106957 0.15087891 27.11499023 C0.17516209 30.41393188 0.18649123 33.71270397 0.1953125 37.01171875 C0.20563507 38.03585373 0.21595764 39.05998871 0.22659302 40.11515808 C0.22681961 41.55608574 0.22681961 41.55608574 0.22705078 43.02612305 C0.231492 43.86773483 0.23593323 44.70934662 0.24050903 45.57646179 C-0.03665572 48.36936884 -0.77216034 50.48258887 -2 53 C-3.78125 53.96484375 -3.78125 53.96484375 -6 54 C-20.47340188 48.79044722 -34.36536631 37.93004018 -45 27 C-43.46012098 22.6437633 -40.10858101 20.46967988 -36.5 17.875 C-35.84725098 17.40070557 -35.19450195 16.92641113 -34.52197266 16.43774414 C-11.04770823 -0.21170769 -11.04770823 -0.21170769 0 0 Z " fill="#FCFEFE" transform="translate(330,390)"/>
</svg>
